<svg width="524" height="578" viewBox="0 0 524 578" fill="none" xmlns="http://www.w3.org/2000/svg">
<path d="M261.911 247.101C252.312 247.101 243.107 250.914 236.32 257.702C229.533 264.489 225.72 273.694 225.72 283.293C225.72 292.891 229.533 302.096 236.32 308.884C243.107 315.671 252.312 319.484 261.911 319.484C271.509 319.484 280.715 315.671 287.502 308.884C294.289 302.096 298.102 292.891 298.102 283.293C298.102 273.694 294.289 264.489 287.502 257.702C280.715 250.914 271.509 247.101 261.911 247.101ZM363.13 105.522C363.014 107.693 362.667 109.923 362.348 112.181C365.244 109.884 368.197 107.848 371.208 106.072L375.754 103.611C423.207 79.4353 482.416 97.7335 508.879 143.566L511.311 148.083C534.444 193.336 520.171 250.807 476.944 278.892L472.543 281.584C469.455 283.283 466.202 284.817 462.786 286.188C466.222 287.52 469.474 289.054 472.543 290.791L476.944 293.484C520.171 321.568 534.444 379.069 511.311 424.293L508.879 428.781C482.416 474.642 423.178 492.94 375.754 468.765L371.179 466.275C368.112 464.413 365.162 462.363 362.348 460.137C362.908 463.804 363.207 467.394 363.246 470.907L363.101 476.061C360.351 529.247 314.895 571.374 261.911 571.374C208.927 571.374 163.5 529.247 160.721 476.061L160.576 470.907C160.595 467.394 160.885 463.804 161.444 460.137C159.688 461.584 157.893 462.935 156.059 464.19L152.643 466.275C105.971 493.201 46.1251 477.19 17.6065 433.124L14.9428 428.781C-12.3887 381.472 3.15897 318.586 51.3076 290.791L54.8399 288.852C56.8087 287.886 58.874 286.999 61.0358 286.188C58.9363 285.371 56.8695 284.473 54.8399 283.495L51.3076 281.584C3.15897 253.79 -12.3887 190.933 14.9428 143.595L17.6065 139.252C46.1251 95.1857 106 79.1458 152.643 106.072L156.059 108.186C157.893 109.44 159.688 110.772 161.444 112.181C160.934 108.632 160.644 105.054 160.576 101.468C160.576 45.8789 207.248 1.00195 261.911 1.00195L267.007 1.14672C319.411 3.83934 363.246 47.6161 363.246 101.497L363.13 105.522Z" fill="#D67891"/>
</svg>
